<svg width="40" height="7" viewBox="0 0 40 7" fill="none" xmlns="http://www.w3.org/2000/svg">
<g id="Solana">
<path id="Element" d="M6.83995 5.20258L5.7504 6.37084C5.72683 6.39621 5.69829 6.41647 5.66655 6.43032C5.63482 6.44418 5.60057 6.45135 5.56594 6.45139H0.401006C0.376373 6.45137 0.352277 6.44418 0.33167 6.43068C0.311064 6.41718 0.294841 6.39797 0.284988 6.37539C0.275135 6.35281 0.272079 6.32785 0.276195 6.30356C0.280311 6.27928 0.291419 6.25671 0.308161 6.23864L1.39649 5.07038C1.42005 5.04501 1.44859 5.02476 1.48033 5.0109C1.51206 4.99705 1.54632 4.98987 1.58095 4.98983H6.74588C6.77072 4.98932 6.79519 4.99617 6.81616 5.00953C6.83712 5.02288 6.85373 5.04214 6.86375 5.06488C6.87383 5.08762 6.87691 5.11283 6.87266 5.13733C6.86842 5.16184 6.85705 5.18454 6.83995 5.20258ZM5.7504 2.84946C5.72674 2.8242 5.69818 2.80403 5.66647 2.79018C5.63475 2.77633 5.60054 2.7691 5.56594 2.76892H0.401006C0.376373 2.76893 0.352277 2.77613 0.33167 2.78963C0.311064 2.80312 0.294841 2.82234 0.284988 2.84492C0.275135 2.8675 0.272079 2.89245 0.276195 2.91674C0.280311 2.94103 0.291419 2.96359 0.308161 2.98167L1.39649 4.15054C1.42014 4.1758 1.4487 4.19596 1.48042 4.20982C1.51213 4.22366 1.54634 4.2309 1.58095 4.23108H6.74588C6.77047 4.23095 6.79445 4.22366 6.81499 4.21013C6.83553 4.19658 6.85164 4.17736 6.86141 4.15481C6.87119 4.13225 6.8742 4.10734 6.87002 4.0831C6.8659 4.05887 6.85483 4.03637 6.83811 4.01834L5.7504 2.84946ZM0.401006 2.01016H5.56594C5.60057 2.01013 5.63482 2.00295 5.66655 1.98909C5.69829 1.97524 5.72683 1.95499 5.7504 1.92961L6.83995 0.761357C6.85705 0.743312 6.86842 0.72061 6.87266 0.696108C6.87691 0.671606 6.87383 0.646398 6.86375 0.623656C6.85373 0.600915 6.83712 0.581655 6.81616 0.568302C6.79519 0.554948 6.77072 0.548097 6.74588 0.548611H1.58095C1.54632 0.548647 1.51206 0.555818 1.48033 0.569677C1.44859 0.583535 1.42005 0.603783 1.39649 0.629159L0.308161 1.79741C0.291419 1.81549 0.280311 1.83805 0.276195 1.86234C0.272079 1.88663 0.275135 1.91158 0.284988 1.93416C0.294841 1.95674 0.311064 1.97595 0.33167 1.98945C0.352277 2.00295 0.376373 2.01015 0.401006 2.01016Z" fill="url(#paint0_linear_32_261)"/>
<g id="Element_2">
<path fill-rule="evenodd" clip-rule="evenodd" d="M28.2048 1.22498H25.4993C25.3801 1.22434 25.2619 1.24718 25.1515 1.29222C25.041 1.33727 24.9405 1.40362 24.8558 1.4875C24.771 1.57137 24.7035 1.67113 24.6573 1.78106C24.611 1.891 24.5869 2.00897 24.5863 2.12823V5.77504H25.5086V4.28028H28.2017V5.77504H29.124V2.12823C29.1234 2.00845 29.0991 1.88997 29.0525 1.77963C29.0058 1.66929 28.9378 1.56926 28.8524 1.4853C28.767 1.40135 28.6658 1.33512 28.5546 1.29045C28.4434 1.24577 28.3246 1.22352 28.2048 1.22498ZM28.198 3.37027H25.5049V2.13499H28.198V3.37027Z" fill="#000008"/>
<path fill-rule="evenodd" clip-rule="evenodd" d="M15.7161 1.22497H18.4898C18.6091 1.22433 18.7273 1.24718 18.8377 1.29222C18.9481 1.33726 19.0487 1.40361 19.1334 1.48749C19.2182 1.57136 19.2856 1.67112 19.3319 1.78105C19.3781 1.89099 19.4023 2.00896 19.4029 2.12822V4.87178C19.4023 4.99104 19.3781 5.10901 19.3319 5.21895C19.2856 5.32889 19.2182 5.42864 19.1334 5.51252C19.0487 5.59639 18.9481 5.66274 18.8377 5.70779C18.7273 5.75283 18.6091 5.77568 18.4898 5.77503H15.7161C15.5966 5.776 15.4782 5.75339 15.3674 5.7085C15.2567 5.6636 15.156 5.5973 15.0709 5.51339C14.9858 5.42949 14.9182 5.32962 14.8718 5.21952C14.8254 5.10943 14.8012 4.99125 14.8006 4.87178V2.12822C14.8012 2.00875 14.8254 1.89058 14.8718 1.78048C14.9182 1.67038 14.9858 1.57052 15.0709 1.48661C15.156 1.4027 15.2567 1.33641 15.3674 1.29151C15.4782 1.24661 15.5966 1.224 15.7161 1.22497ZM15.7229 4.86502H18.483L18.4818 2.13498H15.7229V4.86502Z" fill="#000008"/>
<path d="M10.3735 3.04498H13.1367C13.2561 3.04433 13.3744 3.06723 13.4849 3.11235C13.5954 3.15746 13.6959 3.22393 13.7808 3.30793C13.8656 3.39193 13.933 3.49183 13.9792 3.60191C14.0253 3.71199 14.0493 3.83009 14.0498 3.94946V4.87177C14.0492 4.99103 14.025 5.109 13.9788 5.21894C13.9325 5.32888 13.8651 5.42863 13.7803 5.5125C13.6956 5.59638 13.595 5.66273 13.4846 5.70777C13.3742 5.75281 13.256 5.77567 13.1367 5.77501H9.51696V4.865H13.1312V3.95499H10.3643C10.2449 3.95564 10.1265 3.93275 10.0161 3.88763C9.90556 3.84251 9.80503 3.77605 9.72018 3.69204C9.63539 3.60804 9.568 3.50814 9.52182 3.39806C9.47564 3.28798 9.45166 3.16988 9.45117 3.05051V2.1282C9.45179 2.00894 9.47595 1.89097 9.52219 1.78104C9.56843 1.6711 9.63588 1.57135 9.72067 1.48747C9.8054 1.4036 9.90593 1.33724 10.0164 1.2922C10.1268 1.24716 10.245 1.22431 10.3643 1.22496H13.8549V2.13497H10.3735V3.04498Z" fill="#000008"/>
<path fill-rule="evenodd" clip-rule="evenodd" d="M36.2688 1.22496H38.9742C39.0935 1.22431 39.2117 1.24716 39.3221 1.2922C39.4326 1.33724 39.533 1.4036 39.6178 1.48747C39.7026 1.57135 39.7701 1.6711 39.8163 1.78104C39.8625 1.89097 39.8867 2.00894 39.8873 2.1282V5.77501H38.965V4.28026H36.278V5.77501H35.3557V2.1282C35.3563 2.00894 35.3805 1.89097 35.4267 1.78104C35.473 1.6711 35.5404 1.57135 35.6252 1.48747C35.71 1.4036 35.8105 1.33724 35.9209 1.2922C36.0313 1.24716 36.1495 1.22431 36.2688 1.22496ZM36.2719 3.37025H38.965V2.13497H36.2719V3.37025Z" fill="#000008"/>
<path d="M33.6157 4.865H33.2467L31.9278 1.60617C31.8826 1.49374 31.8049 1.39739 31.7045 1.32947C31.6042 1.26154 31.4858 1.22515 31.3646 1.22495H30.5462C30.4667 1.22455 30.3878 1.23981 30.3142 1.26987C30.2406 1.29994 30.1736 1.34421 30.117 1.40017C30.0605 1.45612 30.0156 1.52266 29.9848 1.59599C29.954 1.66931 29.9379 1.74799 29.9375 1.82753V5.77501H30.8598V2.13496H31.2287L32.547 5.39379C32.5929 5.506 32.6713 5.60197 32.7721 5.66943C32.8728 5.7369 32.9914 5.7728 33.1127 5.77255H33.9311C34.0107 5.77296 34.0895 5.75769 34.1631 5.72763C34.2368 5.69757 34.3037 5.65329 34.3603 5.59734C34.4168 5.54138 34.4617 5.47484 34.4925 5.40152C34.5233 5.32819 34.5394 5.24951 34.5398 5.16997V1.22495H33.6157V4.865Z" fill="#000008"/>
<path d="M20.2176 1.22497H21.1399V4.86502H23.9007V5.77503H21.1338C21.0143 5.77608 20.8957 5.75353 20.7849 5.70867C20.6742 5.66381 20.5733 5.59753 20.4882 5.51361C20.4031 5.42969 20.3354 5.32981 20.289 5.21966C20.2425 5.10953 20.2182 4.99131 20.2176 4.87178V1.22497Z" fill="#000008"/>
</g>
</g>
<defs>
<linearGradient id="paint0_linear_32_261" x1="0.831539" y1="6.59207" x2="6.24776" y2="0.486291" gradientUnits="userSpaceOnUse">
<stop offset="0.08" stop-color="#9945FF"/>
<stop offset="0.3" stop-color="#8752F3"/>
<stop offset="0.5" stop-color="#5497D5"/>
<stop offset="0.6" stop-color="#43B4CA"/>
<stop offset="0.72" stop-color="#28E0B9"/>
<stop offset="0.97" stop-color="#19FB9B"/>
</linearGradient>
</defs>
</svg>
